<svg width="63" height="75" viewBox="0 0 63 75" fill="none" xmlns="http://www.w3.org/2000/svg">
<path d="M4.60352 61.0595L7.34277 68.7939L10.0674 61.0595H12.9531V71.7236H10.7485V68.8085L10.9683 63.7768L8.08984 71.7236H6.58105L3.70996 63.7841L3.92969 68.8085V71.7236H1.73242V61.0595H4.60352ZM17.6919 68.728L19.1567 63.7988H21.4272L18.2412 72.954L18.0654 73.3715C17.5918 74.4067 16.8105 74.9243 15.7217 74.9243C15.4141 74.9243 15.1016 74.8779 14.7842 74.7851V73.1811L15.1064 73.1884C15.5068 73.1884 15.8047 73.1274 16 73.0053C16.2002 72.8832 16.3564 72.6806 16.4688 72.3974L16.7178 71.7455L13.9419 63.7988H16.2197L17.6919 68.728ZM31.6665 68.9257C31.6665 68.5107 31.52 68.1933 31.2271 67.9736C30.9341 67.749 30.4067 67.5146 29.645 67.2704C28.8833 67.0214 28.2803 66.7773 27.8359 66.538C26.625 65.8837 26.0195 65.0024 26.0195 63.894C26.0195 63.3178 26.1807 62.8051 26.5029 62.3559C26.8301 61.9018 27.2964 61.5478 27.9019 61.2939C28.5122 61.04 29.1958 60.913 29.9526 60.913C30.7144 60.913 31.3931 61.0522 31.9888 61.3305C32.5845 61.6039 33.0459 61.9921 33.373 62.4951C33.7051 62.998 33.8711 63.5693 33.8711 64.2089H31.6738C31.6738 63.7206 31.52 63.3422 31.2124 63.0737C30.9048 62.8002 30.4727 62.6635 29.916 62.6635C29.3789 62.6635 28.9614 62.7783 28.6636 63.0078C28.3657 63.2324 28.2168 63.5302 28.2168 63.9013C28.2168 64.248 28.3901 64.5385 28.7368 64.7729C29.0884 65.0073 29.6035 65.227 30.2822 65.4321C31.5322 65.808 32.4429 66.2744 33.0142 66.831C33.5854 67.3876 33.8711 68.081 33.8711 68.9111C33.8711 69.8339 33.522 70.559 32.8237 71.0864C32.1255 71.6088 31.1855 71.8701 30.0039 71.8701C29.1836 71.8701 28.4365 71.7211 27.7627 71.4233C27.0889 71.1205 26.5737 70.7079 26.2173 70.1855C25.8657 69.663 25.6899 69.0576 25.6899 68.3691H27.8945C27.8945 69.5458 28.5977 70.1342 30.0039 70.1342C30.5264 70.1342 30.9341 70.0292 31.2271 69.8193C31.52 69.6044 31.6665 69.3066 31.6665 68.9257ZM39.9722 70.9179C39.4497 71.5527 38.7271 71.8701 37.8042 71.8701C36.9546 71.8701 36.3052 71.6259 35.856 71.1376C35.4116 70.6494 35.1846 69.934 35.1748 68.9916V63.7988H37.2915V68.9184C37.2915 69.7436 37.6675 70.1562 38.4194 70.1562C39.1372 70.1562 39.6304 69.9072 39.8989 69.4091V63.7988H42.0229V71.7236H40.0308L39.9722 70.9179ZM45.8535 71.7236H43.7295V63.7988H45.8535V71.7236ZM43.605 61.748C43.605 61.4306 43.71 61.1694 43.9199 60.9643C44.1348 60.7592 44.4253 60.6567 44.7915 60.6567C45.1528 60.6567 45.4409 60.7592 45.6558 60.9643C45.8706 61.1694 45.978 61.4306 45.978 61.748C45.978 62.0703 45.8682 62.3339 45.6484 62.539C45.4336 62.7441 45.1479 62.8466 44.7915 62.8466C44.4351 62.8466 44.147 62.7441 43.9272 62.539C43.7124 62.3339 43.605 62.0703 43.605 61.748ZM50.1382 61.8505V63.7988H51.4932V65.3515H50.1382V69.3066C50.1382 69.5995 50.1943 69.8095 50.3066 69.9365C50.4189 70.0634 50.6338 70.1269 50.9512 70.1269C51.1855 70.1269 51.3931 70.1098 51.5737 70.0756V71.6796C51.1587 71.8066 50.7314 71.8701 50.292 71.8701C48.8076 71.8701 48.0508 71.1205 48.0215 69.6215V65.3515H46.8643V63.7988H48.0215V61.8505H50.1382ZM56.3198 71.8701C55.1577 71.8701 54.2104 71.5136 53.478 70.8007C52.7505 70.0878 52.3867 69.1381 52.3867 67.9516V67.7465C52.3867 66.9506 52.5405 66.2402 52.8481 65.6152C53.1558 64.9853 53.5903 64.5019 54.1519 64.165C54.7183 63.8232 55.3628 63.6523 56.0854 63.6523C57.1694 63.6523 58.0215 63.9941 58.6416 64.6777C59.2666 65.3613 59.5791 66.3305 59.5791 67.5854V68.4496H54.5327C54.6011 68.9672 54.8062 69.3823 55.1479 69.6948C55.4946 70.0073 55.9316 70.1635 56.459 70.1635C57.2744 70.1635 57.9116 69.8681 58.3706 69.2773L59.4106 70.4418C59.0933 70.8911 58.6636 71.2426 58.1216 71.4965C57.5796 71.7455 56.979 71.8701 56.3198 71.8701ZM56.0781 65.3661C55.6582 65.3661 55.3164 65.5078 55.0527 65.791C54.7939 66.0742 54.6279 66.4794 54.5547 67.0068H57.499V66.8383C57.4893 66.3696 57.3623 66.0082 57.1182 65.7543C56.874 65.4955 56.5273 65.3661 56.0781 65.3661Z" fill="#333333"/>
<path d="M28.4871 54.3987V54.4869H28.418L28.4871 54.3987Z" fill="#4C4848"/>
<path d="M29.7313 42.6447H25.585V47.9346H29.7313V42.6447Z" fill="#71CE47"/>
<path d="M35.8123 42.6447H31.666V47.9346H35.8123V42.6447Z" fill="#71CE47"/>
<path d="M29.7313 49.6098H25.585V54.8998H29.7313V49.6098Z" fill="#71CE47"/>
<path d="M35.8123 49.6098H31.666V54.8998H35.8123V49.6098Z" fill="#71CE47"/>
<path d="M49.7027 13.1368L31.1133 0.705322V31.5636L49.7027 47.8744V13.1368Z" fill="#71CE47"/>
<path d="M22.475 19.9256L18.1904 17.0161V41.9672L22.475 38.2642V19.9256Z" fill="#71CE47"/>
<path d="M29.938 0L23.6494 5.81898V37.2062L29.938 31.7399V0Z" fill="#4C4848"/>
<path d="M50.9463 25.2156V48.9324L56.3365 53.6934H56.4056V29.0949L50.9463 25.2156Z" fill="#4C4848"/>
<path d="M17.0156 16.2226L4.99121 27.3316V53.6052L17.0156 43.0252V16.2226Z" fill="#4C4848"/>
</svg>
