<svg width="20" height="20" viewBox="0 0 20 20" fill="none" xmlns="http://www.w3.org/2000/svg">
<g clip-path="url(#clip0)">
<path d="M13.8381 3.01111L11.5357 5.31351L11.8016 5.57936L11.3176 6.06337C10.285 7.09594 9.00604 7.88298 7.61891 8.33933C6.05749 8.85306 4.61778 9.73904 3.45544 10.9013L0 14.3567L5.64254 19.9992L9.09791 16.5438C10.2603 15.3815 11.1462 13.9418 11.6599 12.3804C12.1162 10.9933 12.9033 9.71427 13.9359 8.68174L14.4199 8.19773L14.6857 8.46358L16.9882 6.16117L13.8381 3.01111ZM5.64254 18.3333L1.66599 14.3567L2.47291 13.5498L6.4495 17.5263L5.64254 18.3333ZM8.26493 15.7109L7.28244 16.6934L3.30588 12.7168L4.28838 11.7343C4.67395 11.3487 5.09397 10.9974 5.54106 10.6848L9.31446 14.4581C9.00182 14.9053 8.65051 15.3253 8.26493 15.7109ZM13.1029 7.84872C11.9405 9.0111 11.0546 10.4508 10.5409 12.0122C10.3813 12.4972 10.1804 12.9687 9.94365 13.4214L6.57786 10.0556C7.03057 9.81876 7.50196 9.61791 7.98706 9.45834C9.54848 8.94461 10.9882 8.05864 12.1505 6.89634L12.6345 6.41234L13.5869 7.36472L13.1029 7.84872ZM13.2017 5.31351L13.8381 4.67702L15.3222 6.1611L14.6857 6.79755L13.2017 5.31351Z" fill="black"/>
<path d="M17.6719 1.49469L15.9746 3.19202L16.8076 4.02498L18.5049 2.32765L17.6719 1.49469Z" fill="black"/>
<path d="M14.9403 0.0015068L14.2852 2.31085L15.4185 2.63235L16.0736 0.323004L14.9403 0.0015068Z" fill="black"/>
<path d="M19.6791 3.927L17.3696 4.58185L17.691 5.71527L20.0005 5.06042L19.6791 3.927Z" fill="black"/>
</g>
<defs>
<clipPath id="clip0">
<rect width="20" height="20" fill="white"/>
</clipPath>
</defs>
</svg>
