<svg width="20" height="21" viewBox="0 0 20 21" fill="none" xmlns="http://www.w3.org/2000/svg">
<g clip-path="url(#clip0)">
<path d="M18.3441 4.63898L20.0009 2.89935L17.2397 0L15.5829 1.73963L14.0641 0.145021L12.4073 1.88461L11.5789 1.01478L8.81765 3.91412L11.1648 6.37862L6.07585 11.722L3.72871 9.25755L0.96743 12.1569L1.79581 13.0267L0.139013 14.7663L1.65777 16.361L0.000976562 18.1006L2.76222 21L4.41901 19.2603L5.93773 20.855L7.59453 19.1154L8.4229 19.9852L11.1842 17.0858L8.83705 14.6213L13.926 9.27796L16.2731 11.7425L19.0344 8.84311L18.206 7.97327L19.8628 6.23364L18.3441 4.63898ZM17.2397 1.73955L18.3442 2.89939L17.5158 3.76923L16.4112 2.60939L17.2397 1.73955ZM2.76222 19.2604L1.65765 18.1006L2.48611 17.2307L3.59072 18.3906L2.76222 19.2604ZM5.93773 19.1155L1.79569 14.7663L2.62415 13.8964L6.76619 18.2456L5.93773 19.1155ZM8.42294 18.2456L2.62411 12.1569L3.72871 10.9971L9.52755 17.0858L8.42294 18.2456ZM8.00875 13.7516L6.90419 12.5918L11.9931 7.24841L13.0977 8.40821L8.00875 13.7516ZM16.2732 10.0029L10.4743 3.91412L11.5789 2.75433L17.3778 8.84311L16.2732 10.0029ZM13.2356 2.75437L14.0641 1.88449L18.2062 6.23368L17.3777 7.10356L13.2356 2.75437Z" fill="black"/>
</g>
<defs>
<clipPath id="clip0">
<rect width="20" height="21" fill="white"/>
</clipPath>
</defs>
</svg>
