<svg width="20" height="20" viewBox="0 0 20 20" fill="none" xmlns="http://www.w3.org/2000/svg">
<g clip-path="url(#clip0)">
<path d="M18.2635 6.21778L17.8454 4.12849L16.6815 4.59444C15.6603 5.00323 14.5711 5.38617 13.4368 5.73543C12.9357 4.37186 12.1787 3.0166 11.1814 1.69893L9.89549 0L9.05048 0.926185C7.70359 2.40253 6.18364 3.83763 4.40381 5.31347C2.99911 6.47825 2.0046 8.10574 1.60346 9.89615C1.18994 11.742 1.40752 13.6196 2.23273 15.326L4.49307 20H6.96537C9.12653 20 11.0382 19.6686 12.6473 19.0149C14.1729 18.3951 15.4353 17.4844 16.3997 16.3081C18.4122 13.8531 19.0741 10.2696 18.2635 6.21778ZM16.2684 6.00989C15.4975 7.56354 14.5331 9.10501 13.3891 10.6078C12.2132 12.1524 10.847 13.6597 9.32849 15.0878C7.7446 16.5774 6.32032 17.6712 5.44652 18.3002V14.5897C5.44652 12.9615 5.98024 11.4283 6.99002 10.156C7.97019 8.92094 9.34775 8.03413 10.8689 7.65889C11.486 7.50667 12.0925 7.34635 12.6791 7.18065L12.6801 7.18381L13.2158 7.02588C13.2209 7.02439 13.226 7.02291 13.2311 7.02142C14.2825 6.71134 15.2999 6.37196 16.2684 6.00989ZM2.74699 10.1524C3.09169 8.61375 3.94576 7.21565 5.15183 6.21559C6.92799 4.7428 8.45367 3.30704 9.81131 1.83057L10.247 2.40617C11.1565 3.60786 11.8483 4.83679 12.3095 6.06723C11.7514 6.2243 11.1748 6.37642 10.5882 6.52111C8.81657 6.95814 7.21268 7.99034 6.07208 9.42751C4.89616 10.9092 4.27463 12.6942 4.27463 14.5897V16.8566L3.2877 14.8158C2.57883 13.35 2.39187 11.7374 2.74699 10.1524ZM15.4933 15.5652C14.6544 16.5885 13.5485 17.3839 12.2062 17.9292C10.7379 18.5257 8.97462 18.8281 6.96537 18.8281H6.70955C7.59511 18.1626 8.79215 17.1992 10.1107 15.9609C11.6799 14.4872 13.093 12.9297 14.311 11.3314C15.4379 9.85275 16.3989 8.33551 17.1815 6.80295C17.8164 10.3558 17.2217 13.4568 15.4933 15.5652Z" fill="black"/>
</g>
<defs>
<clipPath id="clip0">
<rect width="20" height="20" fill="white"/>
</clipPath>
</defs>
</svg>
