<svg width="67" height="38" viewBox="0 0 67 38" fill="none" xmlns="http://www.w3.org/2000/svg">
<path d="M8.84 13.24C7.8 13.32 7 13.36 6.24 13.4C5.96 13.6 5.56 14.16 5.32 14.52C5.32 14.68 5.36 15.12 5.44 15.36C6.04 15.28 6.96 15.16 8.08 15.08C4.6 24 2.52 30.52 0.84 36.72C1.16 37.24 2.04 37.76 2.64 37.76C3.12 37.56 3.96 37.08 4.16 36.8C4.08 36.28 4.12 36.28 4.12 35.6C4.12 32.8 6.56 25 10.52 14.88C12.32 14.64 14.56 14.32 15.32 14.12C15.48 13.84 15.76 13.4 15.76 12.92C14.48 13.04 12.8 13.12 11.24 13.16C12.04 11.12 12.92 9.12 13.52 7.84C14.48 5.84 15.32 4.24 16.28 2.88C16.4 2.72 16.72 2.64 16.76 2.84C17.04 3.84 17.08 4.92 17.12 6.32C17.32 6.44 17.64 6.72 18.04 6.84C18.6 6.72 19.36 6.28 19.56 5.96C19.44 3.88 18.76 1.6 18.12 0.119998C17.24 0.119998 16.32 0.4 15.6 0.639999C13.52 3.32 11.68 6.84 8.84 13.24ZM16.7213 13.48C15.1613 16.52 13.3613 20.88 13.3613 23.28C13.3613 24.28 13.8413 24.8 14.5213 24.8C15.9213 24.8 18.7613 22.68 22.7213 18.04C22.8013 18 23.1613 17.96 23.0813 18.2C22.4413 19.96 21.9213 21.96 21.9213 23.32C21.9213 24.44 22.4013 24.84 22.8813 24.84C24.0813 24.84 26.7213 23.12 27.9613 21.92C27.9613 21.44 27.8813 21.12 27.6813 20.76C26.4813 21.68 25.5613 22.2 24.9613 22.2C24.7213 22.2 24.6013 21.92 24.6013 21.48C24.5613 20.24 25.7213 16.28 27.3613 13.2C27.2413 12.96 26.7613 12.56 26.4813 12.44C26.0013 12.44 25.0013 12.84 24.3213 13.32C20.7213 18.96 17.6013 21.72 16.7213 21.72C16.4413 21.72 16.3613 21.32 16.3613 20.96C16.3613 19.4 17.1213 17.16 19.2013 13.56C19.0413 13.28 18.7613 13 18.5213 12.8C17.9213 12.96 17.4013 13.08 16.7213 13.48ZM39.5017 13.52C39.8617 13.96 40.2617 14.2 40.5817 14.32C40.9817 14.32 41.7017 14 42.1417 13.68C42.3817 13.24 42.5017 12.32 42.5017 11.88C42.0217 11.44 41.2217 11.08 40.7017 10.92C39.5817 10.92 36.9017 13.44 33.6217 17.72C33.5417 17.8 33.1817 17.76 33.3017 17.52C33.8217 15.88 34.0617 14.48 34.0617 13.72C34.0617 13.04 34.0617 12.68 33.8617 12.08C32.4617 12.04 31.6617 12.6 31.0217 13.56C31.2217 13.92 31.4217 14.72 31.4217 15.84C31.3817 17.32 29.9817 21.32 28.4217 24.96C28.7417 25.2 29.2217 25.44 29.7417 25.48C30.2217 25.28 30.9417 25 31.2617 24.72C31.7417 23.52 32.6217 21.96 32.8617 21.56C36.0617 16.36 38.6617 13.8 39.5017 13.52ZM47.0567 11.64C43.6967 14.36 40.6167 19.64 40.6167 23.24C40.6167 24.76 41.4167 25.56 42.9367 25.56C44.8967 25.56 48.6167 23.28 50.3367 21.8C50.3367 21.16 50.2967 20.76 49.9767 20.36C48.5367 21.6 46.1367 23.4 44.5367 23.4C43.6567 23.4 43.5767 22.52 43.5767 21.6C43.5767 20.4 43.8967 19.08 44.5767 17.52C48.8967 17.52 52.2967 15.44 52.2167 13.16C52.1367 11.72 50.6167 11.32 48.8567 11.32C48.2567 11.32 47.4967 11.52 47.0567 11.64ZM47.8167 12.68C48.9767 12.68 49.6967 13 49.6967 13.8C49.6967 15.44 47.3367 16.16 45.1767 16.16C45.9767 14.68 47.0167 13.44 47.8167 12.68ZM54.1152 13.72C54.4352 14.24 54.5152 14.84 54.5152 15.48C54.5152 17.12 53.1152 21.2 51.7152 24.44C52.0352 24.56 52.4352 24.84 52.8352 24.84C53.4352 24.84 54.1952 24.56 54.6752 24.2C54.9952 23.72 55.7152 22.6 56.1152 22.04C58.7552 18.64 62.2752 15.72 62.9952 15.72C63.1552 15.72 63.2752 15.72 63.2752 16.28C63.2752 17.48 61.2352 21.64 61.2352 23.84C61.2352 24.8 61.3952 25.24 62.0352 25.16C62.6752 25.16 63.9552 24.68 64.5152 24.4C64.7552 24.08 64.9552 23.64 64.9952 23.24C64.1152 22.76 63.9952 22.44 63.9952 21.76C63.9952 19.84 66.2752 15.64 66.2752 13.76C66.2752 12.84 66.1152 12.16 65.4752 12.16C64.1952 12.16 60.8352 14.72 56.2352 19.72C56.0752 19.84 55.7552 19.84 55.8352 19.6C56.9952 16.68 57.5152 14.2 57.5152 13.08C57.5152 12.84 57.4752 12.6 57.4352 12.32C56.7552 12.32 56.2752 12.32 55.6352 12.4C55.0752 12.76 54.5552 13.12 54.1152 13.72Z" fill="black"/>
</svg>
