<svg width="17" height="17" viewBox="0 0 17 17" fill="none" xmlns="http://www.w3.org/2000/svg">
<path d="M1.99219 1.32812H2.78906V0H4.11719V1.32812H12.8828V0H14.2109V1.32812H15.0078C16.1063 1.32812 17 2.22182 17 3.32031V15.0078C17 16.1063 16.1063 17 15.0078 17H1.99219C0.893696 17 0 16.1063 0 15.0078V3.32031C0 2.22182 0.893696 1.32812 1.99219 1.32812ZM1.32812 15.0078C1.32812 15.374 1.62602 15.6719 1.99219 15.6719H15.0078C15.374 15.6719 15.6719 15.374 15.6719 15.0078V6.24219H1.32812V15.0078ZM1.32812 4.91406H15.6719V3.32031C15.6719 2.95415 15.374 2.65625 15.0078 2.65625H14.2109V3.98438H12.8828V2.65625H4.11719V3.98438H2.78906V2.65625H1.99219C1.62602 2.65625 1.32812 2.95415 1.32812 3.32031V4.91406Z" fill="#0A0A0E"/>
<path d="M13.1484 7.63672H14.4766V8.96484H13.1484V7.63672Z" fill="#0A0A0E"/>
<path d="M10.4922 7.63672H11.8203V8.96484H10.4922V7.63672Z" fill="#0A0A0E"/>
<path d="M7.83594 7.63672H9.16406V8.96484H7.83594V7.63672Z" fill="#0A0A0E"/>
<path d="M5.17969 7.63672H6.50781V8.96484H5.17969V7.63672Z" fill="#0A0A0E"/>
<path d="M2.52344 7.63672H3.85156V8.96484H2.52344V7.63672Z" fill="#0A0A0E"/>
<path d="M13.1484 10.293H14.4766V11.6211H13.1484V10.293Z" fill="#0A0A0E"/>
<path d="M10.4922 10.293H11.8203V11.6211H10.4922V10.293Z" fill="#0A0A0E"/>
<path d="M7.83594 10.293H9.16406V11.6211H7.83594V10.293Z" fill="#0A0A0E"/>
<path d="M5.17969 10.293H6.50781V11.6211H5.17969V10.293Z" fill="#0A0A0E"/>
<path d="M13.1484 12.9492H14.4766V14.2773H13.1484V12.9492Z" fill="#0A0A0E"/>
<path d="M10.4922 12.9492H11.8203V14.2773H10.4922V12.9492Z" fill="#0A0A0E"/>
<path d="M7.83594 12.9492H9.16406V14.2773H7.83594V12.9492Z" fill="#0A0A0E"/>
<path d="M5.17969 12.9492H6.50781V14.2773H5.17969V12.9492Z" fill="#0A0A0E"/>
<path d="M2.52344 10.293H3.85156V11.6211H2.52344V10.293Z" fill="#0A0A0E"/>
</svg>
